<mxfile host="app.diagrams.net" modified="2023-12-14T08:13:06.910Z" agent="Mozilla/5.0 (Macintosh; Intel Mac OS X 10_15_7) AppleWebKit/537.36 (KHTML, like Gecko) Chrome/120.0.0.0 Safari/537.36" etag="kHEb7almGZ5hz7hlHL4H" version="22.1.8" type="github">
  <diagram name="Page-1" id="iEE6L-ehKIe_5YB8Tya5">
    <mxGraphModel dx="2171" dy="1744" grid="0" gridSize="10" guides="1" tooltips="1" connect="1" arrows="1" fold="1" page="0" pageScale="1" pageWidth="850" pageHeight="1100" math="0" shadow="0">
      <root>
        <mxCell id="0" />
        <mxCell id="1" parent="0" />
        <mxCell id="mYUBiZ8yungS4xUon9Wt-117" value="" style="group" vertex="1" connectable="0" parent="1">
          <mxGeometry x="188" y="-261" width="1231" height="1211" as="geometry" />
        </mxCell>
        <mxCell id="mYUBiZ8yungS4xUon9Wt-2" value="BORROWER" style="rounded=1;whiteSpace=wrap;html=1;fillColor=#A9C4EB;strokeColor=#7EA6E0;" vertex="1" parent="mYUBiZ8yungS4xUon9Wt-117">
          <mxGeometry x="216" y="145" width="173" height="95" as="geometry" />
        </mxCell>
        <mxCell id="mYUBiZ8yungS4xUon9Wt-58" style="edgeStyle=orthogonalEdgeStyle;rounded=0;orthogonalLoop=1;jettySize=auto;html=1;entryX=0.5;entryY=0;entryDx=0;entryDy=0;fontSize=12;startSize=8;endSize=8;" edge="1" parent="mYUBiZ8yungS4xUon9Wt-117" source="mYUBiZ8yungS4xUon9Wt-5">
          <mxGeometry relative="1" as="geometry">
            <mxPoint x="896.5" y="145" as="targetPoint" />
          </mxGeometry>
        </mxCell>
        <mxCell id="mYUBiZ8yungS4xUon9Wt-5" value="SIGNUP" style="rhombus;whiteSpace=wrap;html=1;rounded=1;fillColor=#99CCFF;strokeColor=#000000;" vertex="1" parent="mYUBiZ8yungS4xUon9Wt-117">
          <mxGeometry x="527" width="133" height="115" as="geometry" />
        </mxCell>
        <mxCell id="mYUBiZ8yungS4xUon9Wt-13" value="LOGIN" style="shape=parallelogram;perimeter=parallelogramPerimeter;whiteSpace=wrap;html=1;fixedSize=1;rounded=1;fillColor=#99CCFF;strokeColor=#000000;" vertex="1" parent="mYUBiZ8yungS4xUon9Wt-117">
          <mxGeometry x="505" y="145" width="173" height="95" as="geometry" />
        </mxCell>
        <mxCell id="mYUBiZ8yungS4xUon9Wt-64" style="edgeStyle=none;curved=1;rounded=0;orthogonalLoop=1;jettySize=auto;html=1;fontSize=12;startSize=8;endSize=8;" edge="1" parent="mYUBiZ8yungS4xUon9Wt-117" source="mYUBiZ8yungS4xUon9Wt-2" target="mYUBiZ8yungS4xUon9Wt-13">
          <mxGeometry relative="1" as="geometry" />
        </mxCell>
        <mxCell id="mYUBiZ8yungS4xUon9Wt-14" value="EMAIL VERIFICATION" style="whiteSpace=wrap;html=1;rounded=1;fillColor=#99CCFF;strokeColor=#000000;" vertex="1" parent="mYUBiZ8yungS4xUon9Wt-117">
          <mxGeometry x="370" y="291" width="173" height="95" as="geometry" />
        </mxCell>
        <mxCell id="mYUBiZ8yungS4xUon9Wt-65" style="edgeStyle=orthogonalEdgeStyle;rounded=0;orthogonalLoop=1;jettySize=auto;html=1;entryX=0.5;entryY=0;entryDx=0;entryDy=0;fontSize=12;startSize=8;endSize=8;" edge="1" parent="mYUBiZ8yungS4xUon9Wt-117" source="mYUBiZ8yungS4xUon9Wt-13" target="mYUBiZ8yungS4xUon9Wt-14">
          <mxGeometry relative="1" as="geometry" />
        </mxCell>
        <mxCell id="mYUBiZ8yungS4xUon9Wt-68" style="edgeStyle=none;curved=1;rounded=0;orthogonalLoop=1;jettySize=auto;html=1;fontSize=12;startSize=8;endSize=8;" edge="1" parent="mYUBiZ8yungS4xUon9Wt-117" source="mYUBiZ8yungS4xUon9Wt-16" target="mYUBiZ8yungS4xUon9Wt-14">
          <mxGeometry relative="1" as="geometry" />
        </mxCell>
        <mxCell id="mYUBiZ8yungS4xUon9Wt-71" value="YES" style="edgeLabel;html=1;align=center;verticalAlign=middle;resizable=0;points=[];fontSize=16;" vertex="1" connectable="0" parent="mYUBiZ8yungS4xUon9Wt-68">
          <mxGeometry x="-0.0136" y="-1" relative="1" as="geometry">
            <mxPoint as="offset" />
          </mxGeometry>
        </mxCell>
        <mxCell id="mYUBiZ8yungS4xUon9Wt-70" style="edgeStyle=orthogonalEdgeStyle;rounded=0;orthogonalLoop=1;jettySize=auto;html=1;entryX=0.75;entryY=1;entryDx=0;entryDy=0;fontSize=12;startSize=8;endSize=8;" edge="1" parent="mYUBiZ8yungS4xUon9Wt-117" source="mYUBiZ8yungS4xUon9Wt-16" target="mYUBiZ8yungS4xUon9Wt-13">
          <mxGeometry relative="1" as="geometry" />
        </mxCell>
        <mxCell id="mYUBiZ8yungS4xUon9Wt-73" value="NO" style="edgeLabel;html=1;align=center;verticalAlign=middle;resizable=0;points=[];fontSize=16;" vertex="1" connectable="0" parent="mYUBiZ8yungS4xUon9Wt-70">
          <mxGeometry x="0.1697" y="-3" relative="1" as="geometry">
            <mxPoint x="1" as="offset" />
          </mxGeometry>
        </mxCell>
        <mxCell id="mYUBiZ8yungS4xUon9Wt-16" value="Forgot Password" style="rounded=0;whiteSpace=wrap;html=1;fillColor=#99CCFF;strokeColor=#000000;" vertex="1" parent="mYUBiZ8yungS4xUon9Wt-117">
          <mxGeometry x="625" y="291" width="173" height="95" as="geometry" />
        </mxCell>
        <mxCell id="mYUBiZ8yungS4xUon9Wt-67" style="edgeStyle=orthogonalEdgeStyle;rounded=0;orthogonalLoop=1;jettySize=auto;html=1;fontSize=12;startSize=8;endSize=8;" edge="1" parent="mYUBiZ8yungS4xUon9Wt-117" source="mYUBiZ8yungS4xUon9Wt-13" target="mYUBiZ8yungS4xUon9Wt-16">
          <mxGeometry relative="1" as="geometry" />
        </mxCell>
        <mxCell id="mYUBiZ8yungS4xUon9Wt-17" value="Logout" style="strokeWidth=2;html=1;shape=mxgraph.flowchart.terminator;whiteSpace=wrap;fillColor=#FFFFFF;strokeColor=#000000;" vertex="1" parent="mYUBiZ8yungS4xUon9Wt-117">
          <mxGeometry x="540" y="1116" width="153" height="95" as="geometry" />
        </mxCell>
        <mxCell id="mYUBiZ8yungS4xUon9Wt-20" value="Dashboard" style="rhombus;whiteSpace=wrap;html=1;fillColor=#99CCFF;rounded=1;strokeColor=#000000;" vertex="1" parent="mYUBiZ8yungS4xUon9Wt-117">
          <mxGeometry x="170" y="425" width="143" height="125" as="geometry" />
        </mxCell>
        <mxCell id="mYUBiZ8yungS4xUon9Wt-61" style="edgeStyle=orthogonalEdgeStyle;rounded=0;orthogonalLoop=1;jettySize=auto;html=1;fontSize=12;startSize=8;endSize=8;" edge="1" parent="mYUBiZ8yungS4xUon9Wt-117" source="mYUBiZ8yungS4xUon9Wt-2" target="mYUBiZ8yungS4xUon9Wt-17">
          <mxGeometry relative="1" as="geometry">
            <mxPoint x="242.33333333333303" y="462.3333333333335" as="targetPoint" />
            <Array as="points">
              <mxPoint y="192" />
              <mxPoint y="1164" />
            </Array>
          </mxGeometry>
        </mxCell>
        <mxCell id="mYUBiZ8yungS4xUon9Wt-21" value="VIEW AVAILABLE LOAN OFFERS" style="rounded=1;whiteSpace=wrap;html=1;fillColor=#99CCFF;strokeColor=#000000;" vertex="1" parent="mYUBiZ8yungS4xUon9Wt-117">
          <mxGeometry x="155" y="620" width="173" height="95" as="geometry" />
        </mxCell>
        <mxCell id="mYUBiZ8yungS4xUon9Wt-75" style="edgeStyle=none;curved=1;rounded=0;orthogonalLoop=1;jettySize=auto;html=1;fontSize=12;startSize=8;endSize=8;" edge="1" parent="mYUBiZ8yungS4xUon9Wt-117" source="mYUBiZ8yungS4xUon9Wt-20" target="mYUBiZ8yungS4xUon9Wt-21">
          <mxGeometry relative="1" as="geometry" />
        </mxCell>
        <mxCell id="mYUBiZ8yungS4xUon9Wt-23" value="dashboard" style="rhombus;whiteSpace=wrap;html=1;fillColor=#99CCFF;rounded=1;strokeColor=#000000;" vertex="1" parent="mYUBiZ8yungS4xUon9Wt-117">
          <mxGeometry x="852" y="425" width="133" height="115" as="geometry" />
        </mxCell>
        <mxCell id="mYUBiZ8yungS4xUon9Wt-112" style="edgeStyle=orthogonalEdgeStyle;rounded=0;orthogonalLoop=1;jettySize=auto;html=1;fontSize=12;startSize=8;endSize=8;" edge="1" parent="mYUBiZ8yungS4xUon9Wt-117" source="mYUBiZ8yungS4xUon9Wt-24" target="mYUBiZ8yungS4xUon9Wt-17">
          <mxGeometry relative="1" as="geometry">
            <Array as="points">
              <mxPoint x="242" y="1139" />
            </Array>
          </mxGeometry>
        </mxCell>
        <mxCell id="mYUBiZ8yungS4xUon9Wt-24" value="REFUND LOAN" style="whiteSpace=wrap;html=1;fillColor=#99CCFF;rounded=1;strokeColor=#000000;" vertex="1" parent="mYUBiZ8yungS4xUon9Wt-117">
          <mxGeometry x="155" y="994" width="173" height="95" as="geometry" />
        </mxCell>
        <mxCell id="mYUBiZ8yungS4xUon9Wt-101" style="edgeStyle=orthogonalEdgeStyle;rounded=0;orthogonalLoop=1;jettySize=auto;html=1;entryX=0;entryY=1;entryDx=0;entryDy=0;fontSize=12;startSize=8;endSize=8;" edge="1" parent="mYUBiZ8yungS4xUon9Wt-117" source="mYUBiZ8yungS4xUon9Wt-26" target="mYUBiZ8yungS4xUon9Wt-23">
          <mxGeometry relative="1" as="geometry">
            <Array as="points">
              <mxPoint x="743" y="695" />
              <mxPoint x="743" y="511" />
            </Array>
          </mxGeometry>
        </mxCell>
        <mxCell id="mYUBiZ8yungS4xUon9Wt-108" style="edgeStyle=orthogonalEdgeStyle;rounded=0;orthogonalLoop=1;jettySize=auto;html=1;entryX=1;entryY=0.5;entryDx=0;entryDy=0;fontSize=12;startSize=8;endSize=8;" edge="1" parent="mYUBiZ8yungS4xUon9Wt-117" source="mYUBiZ8yungS4xUon9Wt-26" target="mYUBiZ8yungS4xUon9Wt-20">
          <mxGeometry relative="1" as="geometry">
            <Array as="points">
              <mxPoint x="450" y="693" />
              <mxPoint x="450" y="488" />
            </Array>
          </mxGeometry>
        </mxCell>
        <mxCell id="mYUBiZ8yungS4xUon9Wt-26" value="API" style="strokeWidth=2;html=1;shape=mxgraph.flowchart.direct_data;whiteSpace=wrap;strokeColor=#000000;" vertex="1" parent="mYUBiZ8yungS4xUon9Wt-117">
          <mxGeometry x="525" y="669" width="153" height="95" as="geometry" />
        </mxCell>
        <mxCell id="mYUBiZ8yungS4xUon9Wt-30" value="Database" style="strokeWidth=2;html=1;shape=mxgraph.flowchart.database;whiteSpace=wrap;strokeColor=#000000;" vertex="1" parent="mYUBiZ8yungS4xUon9Wt-117">
          <mxGeometry x="543" y="439" width="113" height="135" as="geometry" />
        </mxCell>
        <mxCell id="mYUBiZ8yungS4xUon9Wt-99" style="edgeStyle=none;curved=1;rounded=0;orthogonalLoop=1;jettySize=auto;html=1;fontSize=12;startSize=8;endSize=8;" edge="1" parent="mYUBiZ8yungS4xUon9Wt-117" source="mYUBiZ8yungS4xUon9Wt-26" target="mYUBiZ8yungS4xUon9Wt-30">
          <mxGeometry relative="1" as="geometry" />
        </mxCell>
        <mxCell id="mYUBiZ8yungS4xUon9Wt-109" style="edgeStyle=orthogonalEdgeStyle;rounded=0;orthogonalLoop=1;jettySize=auto;html=1;fontSize=12;startSize=8;endSize=8;" edge="1" parent="mYUBiZ8yungS4xUon9Wt-117" source="mYUBiZ8yungS4xUon9Wt-38">
          <mxGeometry relative="1" as="geometry">
            <mxPoint x="695.5454545454545" y="953.363636363636" as="targetPoint" />
            <Array as="points">
              <mxPoint x="962" y="953" />
            </Array>
          </mxGeometry>
        </mxCell>
        <mxCell id="mYUBiZ8yungS4xUon9Wt-114" style="edgeStyle=orthogonalEdgeStyle;rounded=0;orthogonalLoop=1;jettySize=auto;html=1;fontSize=12;startSize=8;endSize=8;" edge="1" parent="mYUBiZ8yungS4xUon9Wt-117" source="mYUBiZ8yungS4xUon9Wt-38" target="mYUBiZ8yungS4xUon9Wt-23">
          <mxGeometry relative="1" as="geometry">
            <Array as="points">
              <mxPoint x="1125" y="864" />
              <mxPoint x="1125" y="483" />
            </Array>
          </mxGeometry>
        </mxCell>
        <mxCell id="mYUBiZ8yungS4xUon9Wt-38" value="APPROVE LOAN" style="rounded=1;whiteSpace=wrap;html=1;strokeWidth=2;fillColor=#99CCFF;strokeColor=#000000;" vertex="1" parent="mYUBiZ8yungS4xUon9Wt-117">
          <mxGeometry x="875" y="817" width="173" height="95" as="geometry" />
        </mxCell>
        <mxCell id="mYUBiZ8yungS4xUon9Wt-43" style="edgeStyle=orthogonalEdgeStyle;rounded=0;orthogonalLoop=1;jettySize=auto;html=1;entryX=1;entryY=0.5;entryDx=0;entryDy=0;entryPerimeter=0;" edge="1" parent="mYUBiZ8yungS4xUon9Wt-117" target="mYUBiZ8yungS4xUon9Wt-17">
          <mxGeometry relative="1" as="geometry">
            <mxPoint x="1066.5" y="981" as="targetPoint" />
            <mxPoint x="983" y="192.45454545454527" as="sourcePoint" />
            <Array as="points">
              <mxPoint x="1231" y="192" />
              <mxPoint x="1231" y="1164" />
            </Array>
          </mxGeometry>
        </mxCell>
        <mxCell id="mYUBiZ8yungS4xUon9Wt-63" style="edgeStyle=none;curved=1;rounded=0;orthogonalLoop=1;jettySize=auto;html=1;entryX=1;entryY=0.5;entryDx=0;entryDy=0;fontSize=12;startSize=8;endSize=8;" edge="1" parent="mYUBiZ8yungS4xUon9Wt-117" target="mYUBiZ8yungS4xUon9Wt-13">
          <mxGeometry relative="1" as="geometry">
            <mxPoint x="810" y="192.5" as="sourcePoint" />
          </mxGeometry>
        </mxCell>
        <mxCell id="mYUBiZ8yungS4xUon9Wt-60" style="edgeStyle=orthogonalEdgeStyle;rounded=0;orthogonalLoop=1;jettySize=auto;html=1;fontSize=12;startSize=8;endSize=8;exitX=0;exitY=0.5;exitDx=0;exitDy=0;" edge="1" parent="mYUBiZ8yungS4xUon9Wt-117" source="mYUBiZ8yungS4xUon9Wt-5" target="mYUBiZ8yungS4xUon9Wt-2">
          <mxGeometry relative="1" as="geometry">
            <mxPoint x="-43" y="19" as="sourcePoint" />
            <mxPoint x="311" y="137" as="targetPoint" />
          </mxGeometry>
        </mxCell>
        <mxCell id="mYUBiZ8yungS4xUon9Wt-69" style="edgeStyle=orthogonalEdgeStyle;rounded=0;orthogonalLoop=1;jettySize=auto;html=1;entryX=0.152;entryY=1.001;entryDx=0;entryDy=0;entryPerimeter=0;fontSize=12;startSize=8;endSize=8;" edge="1" parent="mYUBiZ8yungS4xUon9Wt-117" source="mYUBiZ8yungS4xUon9Wt-14" target="mYUBiZ8yungS4xUon9Wt-13">
          <mxGeometry relative="1" as="geometry" />
        </mxCell>
        <mxCell id="mYUBiZ8yungS4xUon9Wt-72" value="YES" style="edgeLabel;html=1;align=center;verticalAlign=middle;resizable=0;points=[];fontSize=16;" vertex="1" connectable="0" parent="mYUBiZ8yungS4xUon9Wt-69">
          <mxGeometry x="0.03" y="3" relative="1" as="geometry">
            <mxPoint as="offset" />
          </mxGeometry>
        </mxCell>
        <mxCell id="mYUBiZ8yungS4xUon9Wt-115" style="edgeStyle=none;curved=1;rounded=0;orthogonalLoop=1;jettySize=auto;html=1;entryX=0.5;entryY=0;entryDx=0;entryDy=0;fontSize=12;startSize=8;endSize=8;" edge="1" parent="mYUBiZ8yungS4xUon9Wt-117" source="mYUBiZ8yungS4xUon9Wt-76" target="mYUBiZ8yungS4xUon9Wt-38">
          <mxGeometry relative="1" as="geometry" />
        </mxCell>
        <mxCell id="mYUBiZ8yungS4xUon9Wt-76" value="CREATE LOAN OFFERS" style="rounded=1;whiteSpace=wrap;html=1;fillColor=#99CCFF;strokeColor=#000000;" vertex="1" parent="mYUBiZ8yungS4xUon9Wt-117">
          <mxGeometry x="875" y="622" width="173" height="95" as="geometry" />
        </mxCell>
        <mxCell id="mYUBiZ8yungS4xUon9Wt-78" value="DOCUMENTATION" style="rounded=1;whiteSpace=wrap;html=1;strokeWidth=2;fillColor=#99CCFF;strokeColor=#000000;" vertex="1" parent="mYUBiZ8yungS4xUon9Wt-117">
          <mxGeometry x="974" y="291" width="173" height="95" as="geometry" />
        </mxCell>
        <mxCell id="mYUBiZ8yungS4xUon9Wt-79" value="PROFILE SETUP" style="whiteSpace=wrap;html=1;fillColor=#99CCFF;rounded=1;strokeColor=#000000;" vertex="1" parent="mYUBiZ8yungS4xUon9Wt-117">
          <mxGeometry x="155" y="291" width="173" height="95" as="geometry" />
        </mxCell>
        <mxCell id="mYUBiZ8yungS4xUon9Wt-40" value="PAYMENT" style="rounded=1;whiteSpace=wrap;html=1;strokeWidth=2;fillColor=#99CCFF;strokeColor=#000000;" vertex="1" parent="mYUBiZ8yungS4xUon9Wt-117">
          <mxGeometry x="520" y="883" width="173" height="95" as="geometry" />
        </mxCell>
        <mxCell id="mYUBiZ8yungS4xUon9Wt-86" style="edgeStyle=none;curved=1;rounded=0;orthogonalLoop=1;jettySize=auto;html=1;fontSize=12;startSize=8;endSize=8;" edge="1" parent="mYUBiZ8yungS4xUon9Wt-117" source="mYUBiZ8yungS4xUon9Wt-82" target="mYUBiZ8yungS4xUon9Wt-24">
          <mxGeometry relative="1" as="geometry" />
        </mxCell>
        <mxCell id="mYUBiZ8yungS4xUon9Wt-104" style="edgeStyle=orthogonalEdgeStyle;rounded=0;orthogonalLoop=1;jettySize=auto;html=1;fontSize=12;startSize=8;endSize=8;" edge="1" parent="mYUBiZ8yungS4xUon9Wt-117" source="mYUBiZ8yungS4xUon9Wt-82" target="mYUBiZ8yungS4xUon9Wt-26">
          <mxGeometry relative="1" as="geometry" />
        </mxCell>
        <mxCell id="mYUBiZ8yungS4xUon9Wt-82" value="REQUEST LOAN" style="whiteSpace=wrap;html=1;fillColor=#99CCFF;rounded=1;strokeColor=#000000;" vertex="1" parent="mYUBiZ8yungS4xUon9Wt-117">
          <mxGeometry x="155" y="794" width="173" height="95" as="geometry" />
        </mxCell>
        <mxCell id="mYUBiZ8yungS4xUon9Wt-84" style="edgeStyle=orthogonalEdgeStyle;rounded=0;orthogonalLoop=1;jettySize=auto;html=1;entryX=0.5;entryY=0;entryDx=0;entryDy=0;fontSize=12;startSize=8;endSize=8;" edge="1" parent="mYUBiZ8yungS4xUon9Wt-117" source="mYUBiZ8yungS4xUon9Wt-79" target="mYUBiZ8yungS4xUon9Wt-20">
          <mxGeometry relative="1" as="geometry" />
        </mxCell>
        <mxCell id="mYUBiZ8yungS4xUon9Wt-102" style="edgeStyle=orthogonalEdgeStyle;rounded=0;orthogonalLoop=1;jettySize=auto;html=1;entryX=1;entryY=0.5;entryDx=0;entryDy=0;entryPerimeter=0;fontSize=12;startSize=8;endSize=8;" edge="1" parent="mYUBiZ8yungS4xUon9Wt-117" source="mYUBiZ8yungS4xUon9Wt-76" target="mYUBiZ8yungS4xUon9Wt-26">
          <mxGeometry relative="1" as="geometry" />
        </mxCell>
        <mxCell id="mYUBiZ8yungS4xUon9Wt-97" style="edgeStyle=none;curved=1;rounded=0;orthogonalLoop=1;jettySize=auto;html=1;entryX=0.25;entryY=0;entryDx=0;entryDy=0;fontSize=12;startSize=8;endSize=8;" edge="1" parent="mYUBiZ8yungS4xUon9Wt-117" source="mYUBiZ8yungS4xUon9Wt-23" target="mYUBiZ8yungS4xUon9Wt-76">
          <mxGeometry relative="1" as="geometry" />
        </mxCell>
        <mxCell id="mYUBiZ8yungS4xUon9Wt-103" style="edgeStyle=orthogonalEdgeStyle;rounded=0;orthogonalLoop=1;jettySize=auto;html=1;entryX=0.972;entryY=0.831;entryDx=0;entryDy=0;entryPerimeter=0;fontSize=12;startSize=8;endSize=8;" edge="1" parent="mYUBiZ8yungS4xUon9Wt-117" source="mYUBiZ8yungS4xUon9Wt-38" target="mYUBiZ8yungS4xUon9Wt-26">
          <mxGeometry relative="1" as="geometry" />
        </mxCell>
        <mxCell id="mYUBiZ8yungS4xUon9Wt-83" style="edgeStyle=orthogonalEdgeStyle;rounded=0;orthogonalLoop=1;jettySize=auto;html=1;entryX=0.5;entryY=0;entryDx=0;entryDy=0;fontSize=12;startSize=8;endSize=8;" edge="1" parent="mYUBiZ8yungS4xUon9Wt-117" source="mYUBiZ8yungS4xUon9Wt-2" target="mYUBiZ8yungS4xUon9Wt-79">
          <mxGeometry relative="1" as="geometry" />
        </mxCell>
        <mxCell id="mYUBiZ8yungS4xUon9Wt-105" style="rounded=0;orthogonalLoop=1;jettySize=auto;html=1;entryX=0;entryY=0.5;entryDx=0;entryDy=0;entryPerimeter=0;fontSize=12;startSize=8;endSize=8;edgeStyle=orthogonalEdgeStyle;" edge="1" parent="mYUBiZ8yungS4xUon9Wt-117" source="mYUBiZ8yungS4xUon9Wt-21" target="mYUBiZ8yungS4xUon9Wt-26">
          <mxGeometry relative="1" as="geometry" />
        </mxCell>
        <mxCell id="mYUBiZ8yungS4xUon9Wt-110" style="edgeStyle=orthogonalEdgeStyle;rounded=0;orthogonalLoop=1;jettySize=auto;html=1;entryX=0.616;entryY=1.003;entryDx=0;entryDy=0;entryPerimeter=0;fontSize=12;startSize=8;endSize=8;exitX=0.574;exitY=0.032;exitDx=0;exitDy=0;exitPerimeter=0;" edge="1" parent="mYUBiZ8yungS4xUon9Wt-117" source="mYUBiZ8yungS4xUon9Wt-40" target="mYUBiZ8yungS4xUon9Wt-26">
          <mxGeometry relative="1" as="geometry">
            <mxPoint x="630" y="881" as="sourcePoint" />
          </mxGeometry>
        </mxCell>
        <mxCell id="mYUBiZ8yungS4xUon9Wt-87" style="edgeStyle=orthogonalEdgeStyle;rounded=0;orthogonalLoop=1;jettySize=auto;html=1;fontSize=12;startSize=8;endSize=8;" edge="1" parent="mYUBiZ8yungS4xUon9Wt-117" source="mYUBiZ8yungS4xUon9Wt-24" target="mYUBiZ8yungS4xUon9Wt-40">
          <mxGeometry relative="1" as="geometry" />
        </mxCell>
        <mxCell id="mYUBiZ8yungS4xUon9Wt-111" style="edgeStyle=none;curved=1;rounded=0;orthogonalLoop=1;jettySize=auto;html=1;entryX=0.5;entryY=0;entryDx=0;entryDy=0;entryPerimeter=0;fontSize=12;startSize=8;endSize=8;" edge="1" parent="mYUBiZ8yungS4xUon9Wt-117" source="mYUBiZ8yungS4xUon9Wt-30" target="mYUBiZ8yungS4xUon9Wt-26">
          <mxGeometry relative="1" as="geometry" />
        </mxCell>
        <mxCell id="mYUBiZ8yungS4xUon9Wt-85" style="edgeStyle=none;curved=1;rounded=0;orthogonalLoop=1;jettySize=auto;html=1;fontSize=12;startSize=8;endSize=8;" edge="1" parent="mYUBiZ8yungS4xUon9Wt-117" source="mYUBiZ8yungS4xUon9Wt-21" target="mYUBiZ8yungS4xUon9Wt-82">
          <mxGeometry relative="1" as="geometry" />
        </mxCell>
        <mxCell id="mYUBiZ8yungS4xUon9Wt-113" style="edgeStyle=orthogonalEdgeStyle;rounded=0;orthogonalLoop=1;jettySize=auto;html=1;entryX=0.803;entryY=0.011;entryDx=0;entryDy=0;entryPerimeter=0;fontSize=12;startSize=8;endSize=8;exitX=0.75;exitY=1;exitDx=0;exitDy=0;" edge="1" parent="mYUBiZ8yungS4xUon9Wt-117" source="mYUBiZ8yungS4xUon9Wt-38" target="mYUBiZ8yungS4xUon9Wt-17">
          <mxGeometry relative="1" as="geometry">
            <mxPoint x="1001" y="997" as="sourcePoint" />
            <Array as="points">
              <mxPoint x="1005" y="1019" />
              <mxPoint x="663" y="1019" />
            </Array>
          </mxGeometry>
        </mxCell>
        <mxCell id="mYUBiZ8yungS4xUon9Wt-116" value="LENDER" style="rounded=1;whiteSpace=wrap;html=1;fillColor=#A9C4EB;strokeColor=#7EA6E0;" vertex="1" parent="mYUBiZ8yungS4xUon9Wt-117">
          <mxGeometry x="812" y="145" width="173" height="95" as="geometry" />
        </mxCell>
      </root>
    </mxGraphModel>
  </diagram>
</mxfile>
